<svg xmlns="http://www.w3.org/2000/svg" viewBox="-15 -65 627 383" data-logo-variant="wordmark">
  <title>noorullah — نور الله</title>
  <path d="M596.407 7.62793L516.3 227.72V228L514.316 233.5L513.316 236H513.286L513.284 236.006L513.269 236H450.269L426.11 302.375L407.316 295.534L428.985 236H366.816L368.2 232.662L452.316 1.55273V1H514.316L514.359 1.43555L514.519 1L533.312 7.84082L457.548 216H499.282L577.613 0.787109L596.407 7.62793ZM223.505 6.84082L123.354 282H164.242L266.711 0.470703L285.505 7.31055L178.316 301.808V302H178.246L178.11 302.374L177.083 302H39.3164V282H40.0713L56.8135 236H6.31641V227.312L0 225.015L81.333 1.55371V1H81.5352L81.7275 0.470703L83.1816 1H142.333V1.03613L142.369 0.9375L161.163 7.77832L79.3164 232.65V236H78.0977L61.3545 282H102.071L204.711 0L223.505 6.84082ZM347.505 7.31055L240.11 302.374L221.316 295.534L328.711 0.470703L347.505 7.31055ZM409.505 7.31055L302.11 302.374L283.316 295.534L390.711 0.470703L409.505 7.31055ZM95.5391 21L24.5645 216H64.0928L135.067 21H95.5391ZM395.548 216H436.265L507.239 21H466.521L395.548 216Z" fill="#F2F2F5"/>
  <rect x="520" y="-50" width="32" height="32" fill="#F2F2F5"/>
</svg>
